HIERARCHY
ROOT Hips
{
	OFFSET -3.958830 18.904000 13.208200
	CHANNELS 6 Xposition Yposition Zposition Zrotation Yrotation Xrotation 
	JOINT LHipJoint
	{
		OFFSET 0.000000 0.000000 0.000000
		CHANNELS 3 Zrotation Yrotation Xrotation
		JOINT LeftUpLeg
		{
			OFFSET 1.800000 -1.400000 0.085000
			CHANNELS 3 Zrotation Yrotation Xrotation
			JOINT LeftLeg
			{
				OFFSET 2.215000 -6.000000 0.000000
				CHANNELS 3 Zrotation Yrotation Xrotation
				JOINT LeftFoot
				{
					OFFSET 2.500000 -6.900000 0.000000
					CHANNELS 3 Zrotation Yrotation Xrotation
					JOINT LeftToeBase
					{
						OFFSET 0.200000 -0.500000 1.950000
						CHANNELS 3 Zrotation Yrotation Xrotation
						End Site
						{
							OFFSET 0.000000 0.000000 0.000000
						}
					}
				}
			}
		}
	}
	JOINT RHipJoint
	{
		OFFSET 0.000000 0.000000 0.000000
		CHANNELS 3 Zrotation Yrotation Xrotation
		JOINT RightUpLeg
		{
			OFFSET -1.800000 -1.400000 0.085000
			CHANNELS 3 Zrotation Yrotation Xrotation
			JOINT RightLeg
			{
				OFFSET -2.215000 -6.000000 0.000000
				CHANNELS 3 Zrotation Yrotation Xrotation
				JOINT RightFoot
				{
					OFFSET -2.500000 -6.900000 0.000000
					CHANNELS 3 Zrotation Yrotation Xrotation
					JOINT RightToeBase
					{
						OFFSET -0.200000 -0.500000 1.950000
						CHANNELS 3 Zrotation Yrotation Xrotation
						End Site
						{
							OFFSET 0.000000 0.000000 0.000000
						}
					}
				}
			}
		}
	}
	JOINT LowerBack
	{
		OFFSET 0.000000 0.000000 0.000000
		CHANNELS 3 Zrotation Yrotation Xrotation
		JOINT Spine
		{
			OFFSET -0.087000 1.940000 -0.288900
			CHANNELS 3 Zrotation Yrotation Xrotation
			JOINT Spine1
			{
				OFFSET 0.000000 1.950000 0.060000
				CHANNELS 3 Zrotation Yrotation Xrotation
				JOINT Neck
				{
					OFFSET 0.000000 0.000000 0.000000
					CHANNELS 3 Zrotation Yrotation Xrotation
					JOINT Neck1
					{
						OFFSET 0.000000 1.600000 0.340000
						CHANNELS 3 Zrotation Yrotation Xrotation
						JOINT Head
						{
							OFFSET 0.000000 1.667000 -0.240000
							CHANNELS 3 Zrotation Yrotation Xrotation
							End Site
							{
								OFFSET 0.000000 0.000000 0.000000
							}
						}
					}
				}
				JOINT LeftShoulder
				{
					OFFSET 0.000000 0.000000 0.000000
					CHANNELS 3 Zrotation Yrotation Xrotation
					JOINT LeftArm
					{
						OFFSET 2.700000 1.550000 -0.730000
						CHANNELS 3 Zrotation Yrotation Xrotation
						JOINT LeftForeArm
						{
							OFFSET 5.450000 0.000000 0.000000
							CHANNELS 3 Zrotation Yrotation Xrotation
							JOINT LeftHand
							{
								OFFSET 3.450000 0.000000 0.000000
								CHANNELS 3 Zrotation Yrotation Xrotation
								JOINT LeftHandIndex1
								{
									OFFSET 0.750000 0.000000 0.000000
									CHANNELS 3 Zrotation Yrotation Xrotation
									End Site
									{
										OFFSET 0.000000 0.000000 0.000000
									}
								}
							}
						}
					}
				}
				JOINT RightShoulder
				{
					OFFSET 0.000000 0.000000 0.000000
					CHANNELS 3 Zrotation Yrotation Xrotation
					JOINT RightArm
					{
						OFFSET -2.700000 1.550000 -0.730000
						CHANNELS 3 Zrotation Yrotation Xrotation
						JOINT RightForeArm
						{
							OFFSET -5.450000 0.000000 0.000000
							CHANNELS 3 Zrotation Yrotation Xrotation
							JOINT RightHand
							{
								OFFSET -3.450000 0.000000 0.000000
								CHANNELS 3 Zrotation Yrotation Xrotation
								JOINT RightHandIndex1
								{
									OFFSET -0.750000 0.000000 0.000000
									CHANNELS 3 Zrotation Yrotation Xrotation
									End Site
									{
										OFFSET 0.000000 0.000000 0.000000
									}
								}
							}
						}
					}
				}
			}
		}
	}
}
MOTION
Frames: 13
Frame Time: 0.016667
0.160380 16.985960 -1.083810 3.562040 31.382097 -0.389799 -14.822573 12.084391 3.075280 5.064494 -5.531693 -15.427361 -10.896743 9.900580 33.777740 -0.495065 7.015885 2.066221 0.924800 0.549560 0.713000 18.685199 -11.929978 2.686334 4.978222 -2.871785 -1.126329 0.122736 -8.982773 37.905905 -1.193206 -6.586904 2.200850 0.490180 0.108300 0.139370 -5.579624 1.304938 -7.721208 16.335501 -2.579068 18.963731 -9.695191 0.623359 24.610381 1.971311 2.480915 -11.636037 1.802125 -9.793620 37.821108 6.691980 -9.003850 -26.642310 -13.996641 -35.401645 8.783543 -28.572799 -39.947875 9.189390 139.077575 -73.624414 -138.510227 -3.535179 2.992554 0.800870 -0.090810 0.096570 0.267530 10.898462 32.511773 8.739258 47.963555 40.043111 0.160756 44.933082 61.991729 17.721898 1.749821 -1.672765 -0.284250 0.485450 -0.174520 -0.304690 
0.147040 16.917280 -1.097960 2.673498 30.482708 -0.742718 -14.772609 11.906400 3.179871 6.387309 -5.839356 -17.159824 -11.670518 10.999519 36.451143 -0.402489 7.643451 1.830836 0.898350 0.505580 0.692700 18.745450 -11.909067 2.702949 5.183301 -2.155337 -1.862968 0.667007 -9.322523 39.802445 -1.233631 -6.814553 2.121437 0.472420 0.117960 0.126570 -5.696182 1.560455 -7.871269 18.142832 -2.228980 19.422672 -10.146922 1.308868 24.238476 2.012982 2.031755 -12.133033 0.788081 -10.231234 38.905295 7.181660 -10.000370 -26.290730 -14.734499 -36.204813 8.976125 -28.928357 -39.936271 8.898069 142.067185 -74.910040 -142.805141 -3.493238 3.012896 0.820710 -0.102020 0.084930 0.259460 11.415296 33.757707 9.185136 46.339712 39.035033 -1.753509 40.159462 59.546242 14.447312 1.683970 -1.646852 -0.305880 0.500100 -0.150750 -0.308100 
0.128390 16.829670 -1.124330 1.666157 28.865537 -1.575867 -14.731238 11.758645 3.304797 8.152414 -5.697645 -18.928258 -12.623694 12.700601 39.572211 -0.261169 8.470721 1.503574 0.874760 0.469740 0.683320 18.791352 -11.801143 2.745928 5.171224 -0.250297 -4.093609 1.404576 -10.305418 45.742877 -1.396999 -7.532660 1.869927 0.444560 0.107470 0.121590 -5.741863 1.689229 -8.107119 19.912702 -2.271878 21.329810 -10.672843 1.942105 24.028314 2.009150 1.109314 -12.991045 -1.117286 -9.695255 40.648846 8.664600 -10.363140 -27.482400 -15.469390 -37.628931 8.987535 -27.739651 -39.050775 6.636249 145.417417 -77.039266 -148.355550 -3.438374 3.023781 0.866400 -0.137600 0.101230 0.226920 12.030681 35.974953 10.089814 43.107742 38.844649 -4.602833 29.681751 56.591516 9.016454 1.551930 -1.559081 -0.311790 0.514310 -0.113300 -0.313940 
0.120690 16.759960 -1.154430 0.844059 27.365636 -2.032417 -14.737514 11.683092 3.342421 9.315196 -5.187446 -20.264484 -12.931582 14.030273 41.643363 -0.160641 9.027509 1.299744 0.854200 0.444430 0.680380 18.797947 -11.517417 2.897074 4.322503 2.966174 -8.807536 3.450441 -12.718614 54.408108 -1.693866 -8.804273 1.470035 0.421140 0.105450 0.098830 -5.642599 1.548246 -8.320953 20.954924 -2.572309 23.552842 -11.271356 2.252384 22.443145 2.109035 0.383027 -12.998396 -2.779982 -9.014242 41.766796 10.041090 -10.256550 -29.281020 -15.080691 -37.275790 8.349640 -26.969528 -39.998137 6.831930 131.795352 -79.084023 -134.690086 -3.508083 2.882035 0.919870 -0.171120 0.120950 0.212540 11.230271 36.212606 9.940885 41.461597 38.887455 -5.207097 21.743702 54.622208 5.648542 1.518557 -1.422892 -0.333850 0.554440 -0.095740 -0.321150 
0.097330 16.729260 -1.196570 0.791434 26.242455 -1.851554 -14.765037 11.541625 3.345017 9.764431 -5.152672 -21.037819 -13.893582 14.779580 41.693430 -0.070962 9.162136 1.241576 0.866880 0.489360 0.675640 18.803099 -11.073157 3.171600 1.711640 6.143262 -15.465821 6.320563 -17.019582 63.825651 -2.122248 -10.584248 0.942280 0.422150 0.079170 0.075710 -5.499322 1.235216 -8.534371 20.434387 -2.871307 25.953085 -11.135582 2.193360 19.859273 1.691665 0.099468 -12.308791 -3.725846 -8.145946 42.969804 11.489540 -9.686650 -29.855310 -13.280435 -37.251937 5.269627 -24.440785 -40.720082 1.924930 81.800974 -84.589384 -75.287320 -3.255167 -0.995686 0.918200 -0.201970 0.148240 0.218470 10.130997 36.223164 10.318985 39.880118 37.761760 -6.167889 16.963482 54.486462 3.610100 1.528332 -1.372933 -0.308350 0.554220 -0.119610 -0.304480 
0.050240 16.724400 -1.203910 1.397834 24.931772 -1.625881 -14.854749 11.582523 3.279449 9.803904 -5.032476 -20.542939 -14.554840 15.108598 40.937455 -0.087677 9.206780 1.201138 0.827720 0.416110 0.677990 18.732340 -10.557357 3.532272 -1.216905 8.516710 -21.553109 7.875662 -20.700474 71.188837 -2.467960 -12.122206 0.473446 0.382410 0.075710 0.120120 -5.153096 0.544549 -8.713223 17.694478 -2.990630 28.640053 -10.642674 1.691969 17.479967 1.070855 0.374264 -11.353026 -3.522336 -7.405829 42.731833 11.640030 -8.721910 -30.094530 -11.512116 -37.797249 2.998403 -17.859490 -38.759407 -3.139209 55.372106 -82.262152 -47.157263 -3.104578 1.300066 0.950630 -0.194130 0.150800 0.171880 9.201700 36.181653 10.112923 36.506779 36.788608 -6.910816 15.040934 57.146099 3.442578 1.504634 -1.339947 -0.315910 0.513260 -0.072100 -0.331170 
0.033970 16.760000 -1.209750 0.975858 24.859293 -1.773516 -14.889248 11.609162 3.019536 9.637831 -4.843509 -19.286220 -13.791956 14.185837 39.113288 -0.158557 8.738843 1.356690 0.796390 0.384470 0.645820 18.732670 -10.152202 3.941622 -3.548520 9.922391 -27.624978 8.524224 -24.501157 78.134669 -2.824287 -13.644296 0.076295 0.348620 0.079780 0.150030 -5.053447 0.114763 -8.778709 17.166070 -4.164911 30.180184 -10.802758 0.146974 16.064571 0.848096 0.375308 -10.612638 -3.535179 -6.324745 42.180875 11.757670 -7.938930 -29.348180 -9.309324 -36.848622 2.085899 -11.501697 -37.403804 -5.681254 47.429716 -73.538190 -34.398623 -3.197506 1.927690 0.931660 -0.176580 0.144360 0.161150 7.421870 34.827243 9.344437 33.046007 34.340975 -8.363513 12.257577 63.222238 2.534983 1.496829 -1.358701 -0.293780 0.463450 -0.056360 -0.322550 
0.016620 16.841170 -1.214000 0.563206 25.643314 -2.265346 -14.925297 11.746108 2.663066 8.880797 -4.425134 -17.833061 -11.262582 12.522235 37.429501 -0.286589 8.047445 1.616330 0.755980 0.305240 0.656780 18.719040 -9.798484 4.395377 -6.495482 10.917260 -32.898775 9.949749 -28.529123 83.074126 -3.128906 -14.923554 -0.239316 0.295040 0.063500 0.157630 -4.979373 -0.332061 -8.808637 17.479494 -5.798761 32.301300 -11.039130 -1.580437 14.866777 1.002377 -0.227743 -10.440216 -4.584931 -5.588964 41.326799 10.749860 -7.751650 -28.813280 -7.629659 -36.128050 1.918896 -5.058932 -34.983484 -8.151950 47.371104 -64.378244 -28.842627 -3.281669 2.157896 0.938420 -0.184400 0.137790 0.140430 5.468353 34.266232 8.679123 27.048672 30.899909 -10.902430 5.148479 68.186085 -1.144360 1.489212 -1.331278 -0.299430 0.428310 -0.049810 -0.339680 
-0.011940 16.967990 -1.188630 -0.402662 26.676833 -2.834979 -14.915255 11.863331 2.285412 8.649926 -3.686239 -16.262343 -8.894403 10.857965 34.713254 -0.393120 7.265063 1.938511 0.603490 0.120290 0.547660 18.754388 -9.562396 4.796536 -8.811653 11.703570 -37.336971 11.548331 -31.178758 85.019216 -3.237006 -15.628764 -0.369533 0.171900 0.128120 0.140560 -5.069643 -0.545007 -8.806363 19.262608 -8.000658 34.113480 -11.925948 -3.508722 13.451072 0.855556 -1.601464 -10.896238 -7.110204 -4.103531 40.891745 11.429790 -8.198540 -26.481970 -6.507495 -34.878172 2.579270 0.173577 -30.642135 -9.928042 48.627508 -57.227057 -25.725246 -3.401166 2.287088 0.913330 -0.153510 0.069620 0.114170 4.600759 33.403554 8.450073 21.681520 26.631898 -13.914298 -13.814753 71.646808 -12.728452 1.452613 -1.055250 -0.330960 0.409550 0.015050 -0.323860 
-0.038820 17.116760 -1.151570 -1.697372 27.954916 -3.356019 -14.923771 11.984179 1.884501 8.692618 -2.675874 -13.794602 -7.009097 8.960254 29.456423 -0.591090 6.232960 2.354565 0.510170 -0.006860 0.514450 18.771209 -9.352463 5.184899 -11.398751 12.002565 -41.148386 14.826772 -34.177699 84.477745 -3.323260 -16.107371 -0.465094 0.093770 0.177020 0.159030 -5.115518 -0.708642 -8.754881 21.129416 -10.188304 35.156713 -12.793158 -5.192016 13.215900 1.449936 -1.948203 -10.857056 -7.189247 -3.501344 39.008654 10.173460 -7.737050 -26.062870 -5.937143 -33.044534 3.351300 3.496117 -26.291654 -11.010286 52.697269 -51.282343 -25.156035 -3.541689 2.327009 0.912890 -0.113200 0.034690 0.081000 2.936704 31.267864 7.807347 17.064644 22.945922 -16.304124 -42.999776 68.578425 -28.668604 1.277252 -0.432554 -0.358710 0.406650 0.068810 -0.331940 
-0.073570 17.265790 -1.094690 -3.720041 27.641266 -3.255261 -14.920345 12.031747 1.612019 9.995506 -1.881837 -12.638978 -5.775765 7.810297 25.192023 -0.662714 5.532228 2.629613 0.449600 -0.090650 0.471560 18.814234 -9.067968 5.553681 -12.955068 12.800502 -45.386048 17.173196 -36.163140 84.079770 -3.390771 -16.460558 -0.538705 0.026870 0.182560 0.174020 -5.132922 -0.917884 -8.759787 23.421225 -12.135965 35.380304 -13.541175 -6.176689 11.794143 1.885631 -3.099665 -10.982142 -9.097387 -2.557095 37.952722 9.524120 -7.678570 -24.354010 -6.312091 -29.834958 3.888343 5.363551 -22.255364 -10.926768 54.276158 -44.855605 -22.798332 -3.596721 2.460608 0.888800 -0.105890 0.012410 0.072730 2.344975 28.686160 7.487212 11.611449 19.275194 -15.719986 -49.872517 62.230905 -28.285902 1.331082 -0.509280 -0.345640 0.351050 0.084970 -0.322170 
-0.132900 17.432700 -1.037960 -5.664481 26.342575 -3.330902 -14.915371 12.044902 1.460201 11.778824 -1.219757 -11.539338 -5.346142 7.140220 21.199647 -0.681025 5.060361 2.824932 0.398750 -0.152400 0.456560 18.851505 -8.819539 5.841266 -13.763457 14.042624 -48.950813 19.009080 -36.618858 82.692294 -3.385533 -16.429489 -0.508753 -0.034090 0.157170 0.150280 -5.112405 -1.053405 -8.795209 25.281595 -13.766806 36.576951 -14.423742 -6.402451 10.532531 2.474277 -4.108221 -11.500579 -10.829660 -1.837493 37.269737 8.594420 -7.118180 -24.203840 -6.553829 -26.879604 4.401696 6.089495 -17.119555 -10.856487 56.101448 -41.675300 -21.920683 -3.581334 2.501655 0.897640 -0.130030 0.014800 0.061050 1.307762 26.692684 7.806555 7.629985 15.907546 -15.126828 -53.480343 53.574234 -25.620744 1.486825 -0.733493 -0.347960 0.329680 0.082390 -0.329050 
-0.183800 17.584220 -0.958760 -7.682985 24.307835 -3.104783 -14.899341 12.025762 1.348333 13.526485 -0.690445 -10.387849 -4.465497 6.461685 17.660291 -0.689179 4.701180 2.956788 0.406240 -0.138740 0.473610 18.899643 -8.648937 6.049367 -13.772703 15.416727 -51.939092 20.062707 -35.985694 80.943977 -3.343958 -16.194502 -0.456033 -0.055160 0.125860 0.174080 -5.111535 -1.058464 -8.802633 27.168892 -14.827607 37.008407 -15.280275 -6.062277 9.478933 2.993217 -4.529645 -11.209729 -11.213091 -1.325469 36.150145 7.823500 -6.069350 -25.484490 -7.700999 -23.725470 4.219612 7.269920 -13.879117 -9.972848 52.905271 -37.803557 -18.352685 -3.569639 2.580536 0.901520 -0.145330 0.046640 0.053120 1.348832 23.970569 7.638971 3.185365 13.423438 -13.796998 -51.953948 43.860660 -20.040908 1.696826 -1.007896 -0.312020 0.296600 0.069890 -0.326090 
